<?xml version="1.0" standalone="no"?>
<!DOCTYPE svg PUBLIC "-//W3C//DTD SVG 20010904//EN"
 "http://www.w3.org/TR/2001/REC-SVG-20010904/DTD/svg10.dtd">
<svg version="1.0" xmlns="http://www.w3.org/2000/svg"
 width="225.000000pt" height="225.000000pt" viewBox="0 0 225.000000 225.000000"
 preserveAspectRatio="xMidYMid meet">

<g transform="translate(0.000000,225.000000) scale(0.100000,-0.100000)"
fill="#000000" stroke="none">
<path d="M1092 2198 c-18 -18 -15 -123 4 -142 39 -40 74 -5 74 73 0 61 -11 81
-45 81 -12 0 -26 -5 -33 -12z"/>
<path d="M624 2069 c-19 -21 -18 -22 13 -77 28 -52 34 -57 65 -57 27 0 34 4
36 24 4 26 -30 98 -56 119 -22 17 -36 15 -58 -9z"/>
<path d="M1568 2078 c-26 -21 -60 -93 -56 -119 2 -19 10 -25 34 -27 29 -3 35
2 64 53 30 53 31 57 16 80 -18 28 -34 31 -58 13z"/>
<path d="M1035 1899 l-70 -51 -103 7 -102 7 -41 -90 -41 -90 -90 -41 -90 -41
7 -103 7 -102 -51 -70 c-28 -38 -51 -79 -51 -90 0 -11 23 -52 51 -90 l50 -70
-6 -98 c-5 -67 -4 -102 4 -111 9 -10 8 -30 -3 -77 -19 -78 -44 -104 -115 -113
-40 -5 -61 -15 -91 -42 -39 -35 -52 -64 -65 -137 -7 -46 -44 -72 -115 -81 -55
-7 -92 -33 -110 -76 -22 -53 0 -65 146 -80 68 -7 126 -16 128 -19 2 -3 0 -42
-4 -86 -11 -124 -1 -131 124 -94 88 27 148 80 165 149 6 25 15 56 19 70 8 28
58 56 115 65 44 7 109 60 125 103 6 15 13 44 17 64 9 55 34 79 91 88 44 7 52
5 84 -20 100 -78 103 -78 195 -10 48 35 54 37 100 30 56 -9 81 -33 90 -88 4
-20 11 -49 17 -64 16 -43 81 -96 125 -103 57 -9 107 -37 115 -65 4 -14 13 -45
19 -70 17 -69 77 -122 165 -149 125 -37 135 -30 124 94 -4 44 -6 83 -4 86 2 3
60 12 128 19 146 15 168 27 146 80 -18 43 -55 69 -110 76 -71 9 -108 35 -115
81 -13 74 -27 103 -67 138 -30 25 -55 37 -91 41 -69 9 -95 35 -113 113 -11 47
-12 67 -3 77 8 9 9 44 4 111 l-6 98 50 70 c28 38 51 79 51 90 0 11 -23 52 -51
90 l-51 70 7 102 7 103 -90 41 -90 41 -41 90 -41 90 -101 -7 -101 -7 -73 51
c-41 28 -82 51 -92 51 -10 -1 -49 -23 -88 -51z m160 -95 l60 -46 91 6 91 6 35
-78 35 -78 77 -34 77 -34 -7 -88 -6 -87 46 -65 c25 -35 46 -68 46 -72 0 -3
-21 -36 -46 -71 l-46 -65 6 -88 7 -87 -77 -34 -77 -34 -35 -78 -36 -79 -88 7
-87 7 -63 -46 c-35 -25 -66 -47 -70 -49 -3 -1 -36 20 -73 47 l-66 48 -87 -7
-88 -7 -36 79 -35 78 -77 34 -77 34 7 87 6 88 -46 65 c-25 35 -46 68 -46 71 0
4 21 37 46 72 l46 65 -6 87 -7 88 77 34 77 34 35 78 35 78 91 -6 91 -6 60 46
c33 25 65 45 70 45 6 0 37 -20 70 -45z m-549 -1006 c20 -9 38 -35 65 -93 20
-45 44 -86 52 -93 12 -11 13 -18 1 -50 -7 -20 -13 -46 -14 -57 -1 -41 -37 -67
-105 -79 -83 -15 -145 -84 -160 -178 -6 -41 -62 -98 -95 -98 -18 0 -19 5 -13
75 4 52 2 79 -6 89 -8 9 -40 18 -82 22 l-69 7 39 27 c39 29 71 89 71 135 0 40
39 76 95 86 93 17 155 83 170 182 6 41 11 43 51 25z m1009 -25 c16 -102 74
-164 170 -182 61 -11 90 -42 98 -105 9 -61 20 -81 67 -115 l40 -28 -69 -7
c-42 -4 -74 -13 -82 -22 -8 -10 -10 -37 -6 -89 6 -64 5 -75 -9 -75 -47 0 -104
66 -104 122 0 33 -39 93 -79 122 -20 15 -55 29 -83 32 -53 7 -98 42 -98 78 -1
11 -7 38 -14 58 -12 32 -11 39 1 50 8 7 32 48 52 93 35 76 60 102 98 104 7 1
15 -16 18 -36z"/>
<path d="M1040 1709 c-81 -13 -192 -72 -255 -134 -97 -97 -154 -251 -141 -380
25 -243 208 -422 451 -442 163 -13 337 72 428 209 100 153 111 325 31 486 -67
137 -205 238 -354 262 -74 11 -84 11 -160 -1z m256 -124 c190 -93 268 -298
193 -501 -31 -82 -130 -181 -214 -214 -85 -34 -215 -34 -300 0 -84 33 -183
132 -214 214 -73 195 1 400 177 494 79 42 123 52 211 47 60 -3 88 -11 147 -40z"/>
<path d="M970 1441 c-21 -40 12 -71 74 -71 l36 0 0 -140 0 -140 -50 0 c-56 0
-80 -23 -61 -59 15 -28 32 -31 156 -31 124 0 141 3 156 31 19 36 -5 59 -61 59
l-50 0 0 140 0 140 34 0 c64 0 97 30 76 70 -10 19 -21 20 -155 20 -132 0 -145
-2 -155 -19z"/>
<path d="M291 1734 c-34 -24 -26 -51 27 -84 60 -38 99 -40 108 -5 8 32 -7 50
-66 80 -43 22 -49 23 -69 9z"/>
<path d="M1889 1725 c-58 -30 -73 -48 -65 -80 9 -35 48 -33 109 6 53 33 60 60
22 85 -17 11 -27 9 -66 -11z"/>
<path d="M162 1268 c-7 -7 -12 -21 -12 -33 0 -34 20 -45 81 -45 78 0 113 35
73 74 -19 19 -124 22 -142 4z"/>
<path d="M1946 1264 c-40 -39 -5 -74 73 -74 61 0 81 11 81 45 0 12 -5 26 -12
33 -18 18 -123 15 -142 -4z"/>
</g>
</svg>
