<?xml version="1.0" standalone="no"?>
<!DOCTYPE svg PUBLIC "-//W3C//DTD SVG 20010904//EN"
 "http://www.w3.org/TR/2001/REC-SVG-20010904/DTD/svg10.dtd">
<svg version="1.0" xmlns="http://www.w3.org/2000/svg"
 width="640.000000pt" height="905.000000pt" viewBox="0 0 640.000000 905.000000"
 preserveAspectRatio="xMidYMid meet">

<g transform="translate(0.000000,905.000000) scale(0.100000,-0.100000)"
fill="#000000" stroke="none">
<path d="M2534 8630 c-64 -36 -126 -106 -162 -180 l-27 -57 -35 24 c-33 22
-129 57 -137 49 -2 -2 20 -11 49 -20 29 -10 70 -31 91 -48 21 -16 39 -28 41
-27 1 2 8 23 14 46 17 56 91 153 140 181 l40 22 -6 -65 c-6 -79 10 -142 49
-187 l29 -33 25 28 c14 15 25 36 25 45 -1 10 -10 1 -21 -20 -11 -21 -23 -38
-27 -38 -16 0 -62 85 -68 126 -9 60 3 127 27 158 26 33 16 33 -47 -4z"/>
<path d="M2670 8498 c3 -56 5 -63 8 -30 2 23 7 42 11 42 18 0 55 -53 66 -97
11 -42 10 -49 -4 -55 -12 -5 -10 -7 8 -7 22 -1 23 2 16 37 -3 20 -15 55 -24
77 -18 40 -67 105 -79 105 -4 0 -5 -33 -2 -72z"/>
<path d="M1865 8539 c-20 -62 11 -197 65 -284 l20 -32 -58 -13 c-121 -27 -238
-115 -258 -196 -7 -27 -6 -28 10 -12 24 25 110 48 175 48 l56 0 -80 -81 c-44
-44 -101 -91 -127 -105 -65 -33 -137 -48 -171 -35 -36 14 -34 3 8 -47 40 -46
150 -106 214 -117 23 -4 41 -10 41 -14 0 -14 -76 -44 -129 -50 l-55 -6 33 -37
c42 -48 141 -97 203 -100 53 -3 53 -3 33 -38 -21 -37 -18 -41 14 -22 17 9 25
19 19 23 -7 5 -7 12 1 25 6 11 11 15 11 9 0 -5 13 18 30 53 16 34 36 65 44 68
9 3 29 -4 46 -16 17 -12 33 -20 36 -17 7 7 -60 47 -78 47 -8 0 -27 -22 -42
-49 -30 -56 -46 -64 -123 -63 -61 0 -126 28 -166 70 l-28 29 43 12 c54 16 111
45 126 64 10 12 8 15 -10 15 -66 0 -167 43 -212 91 -28 30 -29 31 -8 31 12 0
22 3 22 8 0 4 30 21 67 37 52 22 90 50 165 122 53 51 93 94 90 96 -38 22 -156
11 -214 -19 -47 -24 -34 4 30 67 61 59 127 91 213 104 l46 7 -44 86 c-32 62
-46 104 -50 147 l-6 60 45 -46 c61 -63 163 -112 245 -117 46 -3 63 -1 63 8 0
13 -46 80 -63 91 -5 4 -7 11 -3 17 4 6 -2 8 -14 5 -18 -5 -17 -7 8 -28 15 -13
35 -37 45 -54 l18 -31 -34 0 c-45 0 -133 27 -184 57 -60 35 -126 109 -118 133
4 11 4 20 1 20 -2 0 -8 -9 -11 -21z"/>
<path d="M2900 8460 c-13 -22 -45 -54 -70 -70 -25 -16 -40 -30 -35 -30 20 0
82 49 106 84 13 20 27 36 32 36 4 0 7 5 7 10 0 20 -16 8 -40 -30z"/>
<path d="M2955 8367 c0 -45 -6 -101 -13 -125 -12 -39 -71 -112 -92 -112 -12 0
-40 -29 -40 -41 0 -6 9 -7 23 -3 30 10 58 7 71 -7 8 -9 5 -10 -13 -6 -18 4
-21 3 -12 -6 6 -6 40 -13 76 -15 61 -4 65 -6 65 -29 0 -13 -4 -22 -9 -19 -5 3
-12 -1 -15 -10 -4 -10 -2 -13 7 -9 6 4 0 -3 -15 -15 -16 -12 -28 -25 -28 -30
0 -14 69 -32 147 -39 l75 -6 -32 -43 c-17 -24 -39 -58 -49 -75 -12 -21 -25
-32 -40 -31 -23 1 -26 -12 -12 -48 16 -42 23 -158 10 -158 -8 0 -9 -11 -5 -32
l6 -33 -15 25 c-20 34 -41 109 -55 201 -14 84 -22 105 -38 95 -7 -4 -2 -31 15
-79 34 -99 42 -234 18 -319 -9 -34 -24 -68 -33 -74 -9 -7 -13 -18 -9 -28 4
-10 3 -15 -3 -11 -6 3 -10 0 -10 -7 0 -8 -4 -7 -10 4 -6 9 -8 51 -6 92 2 42 0
79 -5 82 -5 3 -7 9 -4 14 3 4 -1 44 -7 87 l-13 78 -5 -120 c-4 -75 -13 -142
-24 -178 -11 -31 -20 -56 -22 -54 -2 1 -6 41 -9 87 -3 47 -11 100 -16 118 -6
18 -8 50 -5 70 4 24 3 32 -3 22 -5 -8 -14 -47 -20 -87 -6 -39 -16 -84 -23
-100 -10 -26 -12 -20 -25 67 -7 52 -11 120 -8 150 l5 55 -23 -75 c-31 -99 -59
-152 -108 -201 -30 -30 -47 -39 -67 -37 -25 3 -26 6 -25 53 l2 50 -14 -64 c-8
-35 -22 -72 -31 -82 -16 -18 -16 -18 30 -3 62 21 144 98 184 171 21 39 32 52
33 38 1 -11 3 -35 5 -54 1 -18 5 -43 8 -55 4 -18 -2 -24 -39 -39 -34 -14 -45
-24 -44 -40 0 -12 -3 -35 -7 -51 -5 -22 -3 -32 11 -43 26 -18 43 -16 50 6 3
10 15 29 26 42 11 13 25 31 29 39 5 8 11 12 14 9 9 -8 -80 -247 -99 -269 -10
-11 -70 -45 -134 -75 -114 -55 -117 -56 -148 -41 -28 13 -31 13 -26 0 4 -12 1
-13 -23 -4 -26 10 -73 7 -108 -6 -20 -8 -105 56 -138 103 -29 42 -31 51 -29
127 1 44 -2 86 -6 92 -9 12 -154 34 -218 34 -50 -1 -166 -32 -200 -54 -13 -9
-31 -26 -38 -39 -7 -12 -28 -46 -45 -75 -23 -38 -30 -60 -26 -78 4 -16 0 -38
-12 -60 -18 -33 -18 -35 -1 -67 13 -24 16 -44 11 -76 -6 -40 -4 -45 32 -82
l38 -39 -49 0 c-28 0 -88 -7 -135 -15 -47 -8 -86 -15 -88 -15 -2 0 0 -5 4 -12
4 -7 3 -8 -5 -4 -17 11 -93 -37 -123 -76 -28 -37 -71 -118 -66 -123 2 -2 16
20 32 50 19 37 32 52 43 48 8 -3 28 7 47 26 26 26 38 30 62 25 24 -4 37 0 61
20 36 30 43 32 43 11 0 -9 9 -15 24 -15 19 0 23 -4 19 -20 -9 -35 -123 -81
-123 -50 0 13 -37 13 -45 0 -3 -5 -11 -7 -18 -4 -7 2 -18 -5 -25 -16 -11 -18
-10 -20 11 -20 27 0 57 -28 57 -53 0 -15 3 -15 20 -5 15 9 22 10 31 1 6 -6 9
-15 6 -20 -6 -10 -101 -9 -134 2 -18 6 -23 2 -29 -19 -9 -39 -32 -16 -26 26
l4 33 -44 -46 c-25 -25 -48 -54 -52 -64 -13 -34 -56 -246 -56 -276 0 -27 2
-29 41 -29 33 0 40 -3 37 -17 -3 -14 -12 -17 -42 -15 l-39 3 5 -103 c5 -107
29 -181 64 -195 11 -4 8 -10 -15 -24 -19 -11 -32 -29 -36 -51 -4 -18 -16 -39
-26 -46 -11 -7 -19 -24 -19 -38 0 -20 4 -24 19 -19 15 4 20 0 23 -25 4 -24 1
-30 -14 -30 -10 0 -18 -2 -18 -4 0 -10 42 -192 47 -206 3 -8 5 -25 4 -37 -2
-17 3 -23 18 -23 24 0 28 -18 7 -34 -13 -9 -11 -25 15 -111 16 -55 43 -154 60
-220 16 -66 32 -127 35 -136 4 -15 -12 -17 -133 -23 -76 -4 -151 -12 -166 -18
-49 -19 -70 -84 -47 -144 7 -17 13 -242 17 -605 l5 -577 -38 -6 c-22 -4 -82
-10 -134 -15 -106 -9 -142 -23 -188 -76 -53 -60 -52 -47 -38 -553 l9 -313 -32
-27 c-30 -25 -34 -35 -44 -110 -13 -100 3 -424 23 -462 7 -14 24 -38 39 -53
l26 -28 2 -327 c1 -296 3 -332 20 -377 19 -50 19 -51 1 -76 -39 -52 -44 -138
-11 -201 15 -31 48 -43 98 -35 19 3 37 1 40 -4 4 -5 24 -9 46 -9 l39 0 0 -47
c0 -108 36 -166 98 -161 29 2 40 9 52 33 8 17 16 32 17 34 2 2 14 -8 28 -23
35 -38 82 -33 110 11 25 40 39 37 44 -8 3 -29 5 -31 11 -14 6 15 9 16 9 4 2
-32 206 -54 581 -63 262 -6 702 -31 821 -47 42 -5 83 -7 92 -3 11 4 18 -1 23
-18 7 -26 78 -91 99 -91 7 0 19 -11 26 -23 14 -27 94 -68 120 -61 10 3 26 -1
37 -9 13 -9 65 -16 148 -20 71 -4 134 -11 140 -15 14 -11 259 -9 349 3 131 17
240 40 280 59 23 10 63 22 90 25 28 3 73 14 101 23 57 20 168 100 205 148 17
22 36 34 63 39 60 10 108 33 113 55 4 13 14 19 33 19 27 0 75 32 64 43 -4 3
10 13 30 21 25 10 36 21 36 35 0 12 -7 21 -15 21 -9 0 -18 6 -21 14 -3 9 -33
19 -77 26 -45 7 -86 21 -108 37 -64 43 -268 74 -359 55 -44 -10 -104 -4 -200
17 -87 19 -100 23 -100 32 0 5 -19 10 -42 11 -38 1 -36 2 17 8 l60 7 -52 3
c-29 1 -57 4 -63 5 -5 1 -26 3 -46 4 -20 0 -33 5 -29 11 5 8 -23 24 -110 60
-11 5 -33 9 -48 8 -16 0 -38 4 -50 10 -20 10 -101 35 -120 36 -4 1 -12 8 -17
16 -7 11 -33 15 -119 15 -61 0 -111 -3 -111 -8 0 -5 -7 -1 -16 7 -8 9 -24 17
-35 17 -37 3 -41 4 -55 23 -11 15 -14 59 -14 192 0 95 4 175 8 178 5 3 15 51
22 107 8 66 27 142 52 212 21 61 36 118 33 126 -4 9 -12 46 -20 83 -10 56 -10
95 1 220 7 84 16 225 19 313 3 88 11 199 16 246 7 61 7 110 -1 170 -22 162 -9
815 21 1057 13 106 24 114 67 52 188 -278 301 -427 340 -452 18 -11 62 -58 97
-104 34 -47 94 -119 133 -162 63 -70 141 -160 241 -281 20 -24 64 -74 98 -113
41 -45 64 -81 69 -103 5 -26 14 -38 42 -52 23 -11 37 -26 39 -41 4 -27 26 -66
63 -107 15 -16 47 -66 72 -110 25 -44 57 -100 71 -125 23 -42 90 -90 125 -90
6 0 48 -36 93 -81 63 -61 87 -79 103 -75 25 6 66 -50 115 -154 34 -72 30 -89
-20 -71 -43 15 -83 -4 -87 -42 -4 -36 17 -43 67 -24 l39 16 -4 -57 c-7 -76 8
-102 69 -121 26 -8 46 -19 44 -25 -6 -17 -48 -18 -92 -3 -37 13 -40 17 -41 50
0 20 -4 40 -9 44 -14 14 5 -197 22 -239 11 -27 14 -58 11 -103 -3 -34 -2 -68
2 -75 20 -32 233 -41 335 -14 95 24 118 42 131 100 10 49 10 49 58 58 48 8 48
8 96 -39 l47 -47 79 22 c137 39 183 59 199 89 11 23 19 27 44 23 36 -5 121 49
121 78 0 12 11 22 33 29 62 21 100 115 83 206 -9 46 -57 101 -102 115 l-36 12
24 16 c44 29 89 77 128 137 78 120 103 247 76 394 -18 103 -49 167 -122 254
-108 128 -232 187 -393 187 -161 0 -294 -52 -386 -152 -151 -163 -190 -440
-90 -638 14 -28 23 -50 21 -50 -3 0 -17 5 -31 10 -15 6 -32 7 -38 3 -7 -4 -21
-8 -32 -9 -11 -1 -24 -2 -30 -4 -30 -8 -47 7 -94 81 -28 44 -51 87 -51 95 0 7
-25 64 -55 125 -42 85 -55 122 -55 156 0 40 -6 53 -51 106 -28 33 -62 83 -76
111 -14 28 -49 89 -78 136 -29 47 -71 121 -94 165 -47 90 -108 192 -186 310
-49 74 -100 162 -212 360 -49 85 -108 197 -193 360 -28 55 -60 114 -70 130
-10 17 -21 52 -25 78 -5 31 -14 51 -26 58 -11 5 -19 16 -19 23 0 8 -16 47 -35
87 -40 86 -73 233 -81 369 -8 128 -16 155 -74 244 -47 71 -53 77 -129 113 -44
21 -80 44 -81 50 0 20 -39 141 -76 238 -19 50 -34 95 -34 101 0 14 89 39 100
28 40 -40 131 -176 136 -202 8 -42 0 -50 -26 -27 -33 30 -22 11 20 -36 23 -24
47 -56 55 -70 8 -15 22 -29 32 -33 16 -5 16 -5 2 6 -9 7 -14 20 -11 28 3 8 1
12 -3 8 -12 -11 -55 56 -55 85 0 54 -15 88 -67 158 -47 62 -53 76 -44 92 10
15 5 27 -36 75 -119 140 -155 202 -194 332 -11 36 -38 101 -61 146 -40 79 -43
82 -107 112 -61 29 -307 132 -315 132 -2 0 -2 -12 0 -27 3 -22 1 -20 -7 7 -9
27 -26 45 -80 80 -38 25 -71 51 -74 58 -3 7 21 -4 53 -26 98 -67 154 -97 242
-131 46 -18 119 -50 162 -72 43 -21 79 -39 81 -39 7 0 -12 91 -34 165 -32 106
-85 201 -141 248 -33 29 -48 50 -48 67 0 41 -29 122 -52 147 -14 15 -33 23
-57 23 -20 0 -44 7 -54 14 -16 13 -13 16 37 45 33 18 62 43 71 62 13 25 19 28
31 18 17 -14 18 -8 2 26 -9 19 -9 28 0 37 7 7 12 22 12 34 0 13 5 26 10 29 14
8 13 -38 -1 -52 -8 -8 -8 -17 0 -31 6 -11 11 -30 11 -42 0 -13 4 -19 11 -14 7
4 10 27 7 62 l-5 56 29 -34 29 -35 -7 30 c-3 17 -7 32 -7 35 0 3 7 23 17 45
11 22 26 67 36 100 l17 60 7 -52 c9 -61 -1 -157 -20 -197 -13 -28 -13 -28 9
-14 36 24 95 155 121 268 l23 103 13 -46 c7 -26 10 -60 8 -76 -7 -47 17 -20
31 34 15 60 14 136 -4 220 -8 38 -15 71 -15 72 0 0 21 13 47 28 58 35 117 96
148 156 l24 46 -41 -14 c-49 -17 -143 -21 -212 -10 l-48 9 30 31 c31 32 78
114 70 122 -2 2 -23 -3 -48 -11 -24 -8 -55 -14 -69 -12 -26 3 -26 3 9 26 19
12 46 22 59 22 24 0 24 0 6 20 -10 11 -38 25 -61 31 l-42 11 19 41 c19 43 26
181 11 219 -4 10 -7 -20 -7 -65z m-146 -984 c1 -24 -6 -28 -26 -15 -10 6 -10
17 -1 47 11 38 12 39 19 15 4 -14 7 -35 8 -47z m-16 -110 c-1 -21 -2 -42 -2
-47 -1 -6 -7 -1 -15 9 -10 14 -11 26 -4 47 14 39 23 35 21 -9z m-113 -29 c0
-2 -7 -4 -15 -4 -8 0 -15 4 -15 10 0 5 7 7 15 4 8 -4 15 -8 15 -10z m-536
-279 c19 -15 19 -15 -2 -15 -13 0 -28 -12 -39 -30 -18 -32 -30 -34 -47 -8 -7
12 -5 23 7 42 20 29 51 33 81 11z m-104 -56 c8 -15 5 -16 -32 -7 -24 5 -44 11
-46 13 -2 2 4 15 14 30 l18 27 18 -24 c10 -12 23 -30 28 -39z m633 -20 c26
-48 28 -62 25 -124 -4 -63 -32 -145 -44 -132 -3 3 2 19 11 37 38 73 24 205
-26 259 -12 13 -16 22 -8 19 7 -2 27 -29 42 -59z m-242 -73 c10 -22 19 -60 19
-84 0 -41 -25 -120 -35 -110 -3 3 1 18 10 34 22 43 19 113 -8 167 -13 25 -20
44 -14 40 5 -3 18 -24 28 -47z m-568 -183 c-5 -13 -2 -15 16 -10 18 4 22 2 19
-16 -4 -30 -31 -32 -44 -4 -11 25 -8 47 7 47 4 0 6 -7 2 -17z m163 -70 c-5 -5
-56 19 -56 27 0 19 16 18 37 -2 12 -12 21 -23 19 -25z m794 2 c0 -5 -5 -3 -10
5 -5 8 -10 20 -10 25 0 6 5 3 10 -5 5 -8 10 -19 10 -25z m-878 -7 c-7 -7 -12
-21 -12 -32 0 -20 0 -20 -14 0 -13 17 -12 20 7 31 28 16 34 16 19 1z m906 -63
c-3 -3 -9 2 -12 12 -6 14 -5 15 5 6 7 -7 10 -15 7 -18z m-449 -180 c53 -211
103 -380 115 -387 8 -6 7 -8 -2 -8 -17 0 -25 22 -66 166 -63 220 -97 363 -95
394 1 18 9 -9 48 -165z m-389 107 c-15 -5 -40 17 -40 36 0 12 6 10 26 -9 14
-13 20 -25 14 -27z m-690 -37 c-7 -8 -24 -15 -39 -15 l-26 1 25 14 c35 20 57
20 40 0z m1299 -30 c0 -5 -4 -3 -9 5 -5 8 -9 22 -9 30 0 16 17 -16 18 -35z
m-529 -8 c14 0 31 1 39 4 8 2 16 -4 18 -13 3 -11 -3 -18 -18 -20 -37 -5 -35
-28 2 -28 30 0 32 -2 18 -15 -8 -8 -27 -16 -42 -17 -15 -1 -27 -6 -27 -10 0
-4 -7 -5 -15 -2 -8 3 -20 24 -25 46 -6 21 -14 46 -17 55 -5 13 -2 15 18 8 13
-4 35 -8 49 -8z m-660 -11 c0 -3 -4 -8 -10 -11 -5 -3 -10 -1 -10 4 0 6 5 11
10 11 6 0 10 -2 10 -4z m1279 -196 c38 -96 72 -188 75 -205 4 -16 3 -23 0 -15
-27 65 -157 398 -161 410 -16 52 25 -38 86 -190z m-1449 180 c0 -4 -8 -14 -18
-23 -16 -15 -21 -15 -38 -2 -15 12 -16 16 -5 24 16 10 61 12 61 1z m-137 -50
c-15 -31 -33 -32 -33 -1 0 22 9 31 31 31 16 0 16 -2 2 -30z m977 -49 c-12 -23
-29 -35 -36 -28 -6 6 27 45 39 46 4 1 3 -8 -3 -18z m-755 -5 c31 -11 40 -19
40 -38 0 -20 -4 -23 -36 -20 -25 2 -41 -3 -54 -18 -26 -29 -45 -25 -45 9 0 22
38 82 52 81 2 0 21 -7 43 -14z m-175 -39 c0 -7 -6 -22 -14 -33 -22 -28 -41 -6
-20 24 17 24 34 29 34 9z m1227 6 c-4 -3 -2 -12 4 -19 7 -8 7 -14 -1 -19 -6
-3 -8 -10 -5 -15 3 -5 -8 -11 -25 -15 -35 -8 -34 0 -14 -95 8 -41 13 -82 11
-92 -3 -10 -1 -18 4 -18 4 0 6 -7 3 -15 -4 -8 -1 -15 7 -15 7 0 10 -3 6 -6 -3
-3 -26 2 -50 11 -44 16 -46 19 -61 81 -19 76 -21 124 -3 125 9 0 9 2 -1 6 -9
4 -5 15 15 41 15 21 32 40 37 44 14 9 82 10 73 1z m-261 -59 c4 -17 2 -29 -6
-34 -15 -9 -5 -30 16 -30 8 0 14 -4 14 -10 0 -5 -11 -10 -24 -10 -13 0 -32 -3
-41 -6 -13 -5 -16 -2 -14 17 2 13 0 30 -5 37 -10 16 19 62 39 62 8 0 18 -12
21 -26z m-831 -64 c18 -20 17 -20 -9 -20 -15 0 -35 -4 -45 -9 -10 -6 -23 -6
-32 0 -12 8 -10 13 10 29 30 25 53 25 76 0z m-75 -125 c17 -20 57 -19 69 2 14
26 19 13 9 -23 -8 -31 -9 -32 -45 -23 -21 4 -42 15 -48 23 -7 9 -20 13 -33 9
-12 -3 -22 -1 -22 5 0 10 18 18 46 21 6 0 17 -6 24 -14z m940 -30 c10 -12 10
-15 -1 -15 -8 0 -25 -3 -38 -7 -24 -6 -24 -6 -5 15 23 25 28 26 44 7z m350 -5
c0 -5 -4 -10 -9 -10 -6 0 -13 5 -16 10 -3 6 1 10 9 10 9 0 16 -4 16 -10z m429
-12 c2 27 19 9 35 -35 15 -45 16 -32 1 27 -3 14 2 8 11 -13 11 -26 14 -50 10
-82 -7 -42 -10 -46 -79 -84 -64 -36 -73 -38 -88 -25 -17 15 -21 64 -6 64 5 0
5 9 2 20 -3 11 -2 20 3 20 6 0 12 -5 14 -10 2 -7 22 -3 52 10 44 20 48 24 43
50 -18 86 -18 86 -8 65 5 -11 10 -14 10 -7z m-1774 -9 c-4 -5 5 -13 18 -18 39
-15 40 -28 6 -45 -18 -9 -34 -16 -36 -16 -1 0 -3 23 -3 51 0 31 4 48 10 44 6
-4 8 -11 5 -16z m1630 1 c3 -5 2 -10 -4 -10 -5 0 -13 5 -16 10 -3 6 -2 10 4
10 5 0 13 -4 16 -10z m-288 -32 c-3 -7 -5 -2 -5 12 0 14 2 19 5 13 2 -7 2 -19
0 -25z m290 -30 c-3 -7 -5 -2 -5 12 0 14 2 19 5 13 2 -7 2 -19 0 -25z m-397
-93 c7 -25 15 -45 19 -45 3 0 25 5 49 10 38 9 47 8 72 -12 36 -29 37 -34 3
-43 -15 -3 -38 -14 -52 -24 -47 -33 -64 -33 -113 -1 -43 29 -78 84 -78 124 0
11 39 28 81 35 4 1 12 -19 19 -44z m-1166 -9 c-6 -14 -33 -30 -41 -23 -9 10
11 37 28 37 12 0 16 -5 13 -14z m96 -276 c0 -27 -4 -40 -14 -40 -11 0 -11 8
-3 40 6 22 12 40 14 40 2 0 3 -18 3 -40z m-250 -4 c0 -8 3 -21 6 -30 7 -19 -6
-21 -30 -3 -11 8 -15 19 -10 30 7 20 34 23 34 3z m250 -171 c0 -14 -4 -25 -9
-25 -12 0 -23 29 -15 41 10 18 24 9 24 -16z m754 -11 c-27 -12 -26 -12 23 -8
l51 5 24 -42 c18 -33 35 -48 77 -66 30 -13 74 -38 99 -55 25 -17 69 -38 100
-47 53 -16 55 -18 93 -91 61 -116 84 -283 64 -450 -10 -80 -19 -100 -48 -100
-12 0 -34 -8 -47 -17 -33 -23 -210 -31 -289 -13 -92 20 -134 46 -258 159 -65
59 -145 127 -178 151 -33 24 -113 96 -178 159 -87 85 -120 124 -129 153 -9 30
-15 37 -30 32 -25 -8 -37 25 -14 42 13 9 16 20 11 47 l-7 34 79 6 c93 7 406
60 446 76 38 15 41 14 22 -5 -8 -9 -26 -17 -39 -18 -12 0 -23 -7 -23 -13 0 -7
3 -13 5 -13 10 0 97 54 107 66 15 18 48 33 59 27 5 -3 -4 -12 -20 -19z m-694
-129 c0 -8 -4 -15 -10 -15 -5 0 -10 7 -10 15 0 8 5 15 10 15 6 0 10 -7 10 -15z
m-4 -123 c-12 -11 -17 7 -9 34 l8 29 3 -28 c2 -16 1 -31 -2 -35z m33 -112 c-2
-44 -6 -80 -10 -80 -4 0 -14 -3 -22 -6 -10 -4 -17 7 -26 40 -15 61 -15 71 3
56 8 -6 17 -24 19 -38 2 -15 5 3 6 41 1 53 4 67 16 67 13 0 16 -13 14 -80z
m102 30 c1 -5 3 -14 4 -20 1 -5 3 -31 4 -56 1 -35 4 -45 15 -41 14 5 36 -10
36 -25 0 -4 -13 -8 -28 -8 -23 0 -30 6 -40 33 -15 40 -16 127 -2 127 6 0 11
-4 11 -10z m-33 -24 c5 -23 -35 -21 -48 3 -9 17 -7 19 18 17 15 -2 28 -10 30
-20z m-149 -83 c1 -7 -3 -13 -9 -13 -5 0 -10 15 -9 33 0 27 2 29 9 12 5 -11 9
-26 9 -32z m145 -89 c8 -21 4 -25 -26 -29 -12 -1 -31 -6 -40 -10 -14 -6 -18
-2 -18 18 0 21 5 26 33 30 17 2 35 5 38 5 4 1 10 -5 13 -14z m-134 -26 c0 -13
-23 -5 -28 10 -2 7 2 10 12 6 9 -3 16 -11 16 -16z m280 -22 c0 -5 -9 -1 -20 9
-11 10 -17 22 -14 27 6 9 33 -20 34 -36z m-263 -23 c-4 -3 -2 -12 3 -18 8 -9
4 -14 -15 -17 -19 -4 -25 -1 -25 13 0 16 12 26 34 28 5 1 6 -2 3 -6z m99 -62
c14 -11 20 -22 15 -25 -14 -9 -61 15 -61 31 0 18 18 16 46 -6z m84 9 c0 -5 -9
-10 -21 -10 -11 0 -17 5 -14 10 3 6 13 10 21 10 8 0 14 -4 14 -10z m-316 -67
c3 -21 6 -56 6 -78 0 -55 11 -69 47 -62 28 5 31 2 56 -49 30 -60 66 -88 128
-98 l39 -6 -2 -373 -3 -372 -85 -2 c-145 -5 -315 -21 -343 -34 -15 -7 -30 -21
-33 -33 -7 -21 -22 -36 -36 -36 -5 0 -8 206 -9 458 0 251 -4 500 -9 552 -6 81
-5 99 10 120 23 34 71 49 156 49 l71 1 7 -37z m450 22 c-4 -8 -10 -12 -15 -9
-14 8 -10 24 6 24 9 0 12 -6 9 -15z m-60 -64 c23 -32 25 -42 16 -65 -14 -37
-30 -24 -23 19 3 19 3 35 0 35 -10 0 -63 -55 -70 -72 -8 -22 -21 -23 -38 -1
-11 13 -11 17 -1 20 6 3 12 15 12 27 0 30 26 64 53 69 12 2 23 5 23 6 1 0 13
-16 28 -38z m110 -30 c-6 -7 -44 40 -43 54 0 6 11 -3 24 -20 13 -16 22 -32 19
-34z m-761 7 c3 -13 7 -261 9 -552 l3 -530 -50 0 -50 -1 -6 540 c-3 297 -4
546 -1 553 2 7 22 12 47 12 36 0 44 -3 48 -22z m406 -12 c9 -10 8 -15 -4 -20
-10 -4 -15 1 -15 14 0 24 4 25 19 6z m238 -276 c11 0 13 -63 13 -351 0 -276
-3 -349 -12 -343 -7 5 -31 8 -53 9 l-40 0 -3 373 -2 372 41 -30 c23 -16 48
-30 56 -30z m435 23 c17 -19 34 -61 53 -131 28 -103 47 -132 86 -132 13 0 18
-13 23 -54 4 -29 14 -78 21 -107 17 -65 70 -428 63 -434 -3 -3 -24 2 -48 10
-24 8 -57 17 -74 20 -17 2 -47 9 -66 14 -39 12 -56 14 -47 5 6 -6 63 -21 107
-29 14 -2 50 -12 80 -23 l55 -19 8 -119 c4 -65 14 -141 23 -169 8 -29 19 -130
24 -245 6 -107 17 -242 26 -300 9 -58 18 -163 19 -235 1 -71 8 -151 14 -176
11 -41 10 -51 -5 -80 -10 -19 -21 -54 -25 -79 -3 -25 -10 -60 -14 -77 -6 -28
-3 -37 23 -62 l31 -28 5 -314 c2 -173 5 -327 7 -343 2 -35 -18 -52 -77 -67
-59 -15 -114 -55 -174 -127 -48 -57 -77 -82 -96 -82 -4 0 3 11 16 25 25 27 21
48 -5 22 -16 -16 -62 -23 -200 -32 -44 -2 -123 -12 -175 -20 -52 -9 -107 -15
-122 -13 -16 3 -24 0 -21 -6 4 -5 -1 -7 -11 -3 -9 4 -62 -3 -118 -14 -115 -23
-180 -27 -186 -10 -6 19 -20 12 -26 -14 -4 -17 -13 -25 -29 -25 -18 0 -26 9
-37 42 -24 67 -48 78 -190 87 -69 5 -140 15 -158 21 -18 7 -34 11 -36 9 -1 -2
-12 -16 -23 -32 l-21 -27 -49 38 c-63 50 -70 59 -93 123 -15 41 -18 45 -14 19
3 -19 17 -54 30 -78 33 -56 24 -53 -21 8 -20 28 -42 50 -49 50 -15 0 -56 121
-56 163 0 35 12 34 44 -4 14 -17 26 -27 26 -22 0 5 -13 22 -30 38 l-30 29 0
265 0 265 28 -27 c15 -15 38 -27 50 -27 18 0 22 -6 23 -32 1 -18 1 -37 0 -41
-1 -5 2 -6 7 -3 5 3 9 -1 9 -9 0 -8 -4 -12 -9 -9 -4 3 -8 0 -8 -5 0 -6 7 -11
15 -11 10 0 15 -10 15 -33 0 -32 27 -103 36 -94 2 2 -3 20 -11 40 -12 30 -15
100 -17 384 -2 191 -4 266 -5 165 l-3 -183 -36 6 -36 5 23 -24 c17 -17 26 -21
31 -13 4 7 7 -24 6 -68 -1 -61 -3 -67 -5 -27 -3 43 -7 52 -23 52 -12 0 -29 19
-48 53 l-30 54 -2 204 c-1 112 -1 212 -1 221 1 13 10 16 44 15 23 -1 45 -6 48
-11 6 -8 2 72 -5 99 -3 10 -6 11 -73 13 l-43 2 0 301 c0 239 3 303 13 314 8 7
17 43 20 79 3 36 12 76 19 88 7 13 12 26 11 29 -4 15 76 79 117 93 25 8 37 15
27 16 -26 0 -89 -28 -115 -53 -39 -36 -64 -96 -71 -171 -3 -42 -11 -71 -18
-74 -19 -6 -18 160 1 196 16 31 61 74 94 91 24 13 145 27 337 40 61 4 118 11
127 15 12 5 27 1 44 -13 35 -28 84 -28 91 -1 7 27 66 29 61 3 -2 -9 -14 -20
-28 -24 -23 -6 -23 -7 -3 -8 12 -1 29 6 38 15 10 11 28 15 54 12 22 -2 37 0
35 4 -3 5 21 7 53 6 l58 -1 -50 -8 c-36 -5 -23 -6 44 -3 52 2 155 4 230 5 75
0 130 3 124 6 -7 2 -13 15 -13 28 0 21 -9 27 -70 46 l-70 23 0 353 0 353 45 0
c52 0 247 26 290 39 17 5 33 10 36 10 3 1 17 -11 31 -26z m695 -695 c-2 -13
-4 -3 -4 22 0 25 2 35 4 23 2 -13 2 -33 0 -45z m-1047 -92 c0 -2 3 -11 6 -20
5 -13 -1 -16 -30 -16 -20 0 -36 5 -36 11 0 5 -4 7 -10 4 -11 -7 -14 8 -3 18 7
8 73 10 73 3z m3932 -483 c69 -34 120 -76 154 -124 15 -22 33 -39 40 -39 8 0
16 -11 20 -25 3 -14 11 -22 17 -18 6 4 8 0 4 -10 -6 -16 26 -90 36 -81 3 3 4
-2 3 -11 -4 -29 -28 -33 -111 -19 -135 23 -249 35 -270 29 -11 -4 -44 -33 -73
-65 l-54 -59 -5 -80 -6 -81 64 -2 c35 -1 122 0 193 2 110 2 133 6 150 21 11
11 23 19 28 19 4 0 8 11 8 25 0 14 6 25 13 25 8 0 20 11 27 25 7 13 17 22 23
18 6 -4 7 16 3 53 -5 47 -4 54 5 34 6 -14 12 -78 13 -142 3 -115 2 -118 -19
-118 -16 0 -26 -12 -44 -55 -36 -85 -154 -251 -172 -240 -4 3 -31 -4 -61 -16
-78 -31 -92 -32 -115 -6 -22 24 -66 104 -82 150 -6 15 -17 27 -26 27 -8 0 -15
6 -15 14 0 12 -40 46 -55 46 -3 0 2 -11 11 -25 9 -14 14 -25 10 -25 -3 0 -13
12 -22 26 -15 22 -15 27 -3 35 9 5 2 7 -23 6 -20 -2 -35 0 -32 5 7 10 -57 69
-68 62 -4 -3 -8 0 -8 5 0 6 -9 11 -20 11 -11 0 -20 -5 -20 -10 0 -6 6 -9 12
-8 7 2 14 -7 16 -20 2 -12 8 -20 13 -17 5 4 9 1 9 -5 0 -7 6 -10 13 -7 9 3 13
-5 14 -27 1 -17 -1 -25 -3 -18 -3 6 -17 12 -30 12 -14 0 -23 4 -20 9 3 5 16 7
29 4 20 -4 21 -3 3 7 -28 18 -50 -9 -42 -52 9 -48 63 -158 94 -192 l27 -29
-47 33 c-26 18 -45 37 -41 43 3 6 1 7 -5 3 -17 -10 -88 70 -123 143 -28 56
-33 77 -33 141 -1 60 2 75 14 75 10 0 15 10 15 28 -1 16 5 27 12 27 13 0 18
18 15 53 -1 11 6 21 17 24 20 5 36 46 25 64 -3 6 -24 9 -45 7 -45 -4 -45 2 -1
87 28 53 163 195 184 195 8 -1 7 -5 -4 -14 -23 -17 -88 -125 -88 -146 0 -9 12
-33 28 -54 27 -36 27 -36 95 -34 l69 3 24 68 c13 38 39 90 58 117 37 51 40 75
13 95 -25 18 -10 25 54 25 42 0 71 -7 111 -27z m-407 -643 c3 -5 2 -10 -4 -10
-5 0 -13 5 -16 10 -3 6 -2 10 4 10 5 0 13 -4 16 -10z m-348 -120 c33 -47 64
-96 68 -109 4 -14 30 -49 58 -78 45 -48 49 -56 39 -78 -6 -13 -25 -31 -42 -40
-30 -15 -34 -15 -113 20 -46 19 -87 35 -93 35 -5 0 -23 30 -39 67 -16 36 -44
89 -62 116 -18 27 -33 52 -33 56 0 3 15 14 33 24 17 10 50 33 72 52 22 18 43
30 46 27 3 -4 32 -45 66 -92z m402 -9 c-1 -13 -2 -13 -6 2 -2 9 -8 17 -13 17
-4 0 -11 8 -14 17 -6 15 -4 15 14 -2 11 -10 19 -25 19 -34z m640 -245 c30 -32
42 -89 31 -148 -12 -63 -34 -95 -76 -108 -19 -6 -34 -17 -34 -24 0 -16 -103
-88 -122 -85 -26 3 -38 -1 -38 -15 0 -17 -77 -49 -193 -80 l-88 -23 -42 38
-42 39 26 23 c17 15 50 28 90 36 143 27 281 91 343 160 11 12 24 21 30 21 6 0
28 11 49 25 38 27 47 54 23 74 -8 7 -12 22 -9 34 4 21 4 21 -11 3 -9 -11 -19
-17 -22 -13 -6 5 44 64 57 66 3 1 16 -10 28 -23z m-1189 -18 c0 -4 -8 -8 -17
-8 -10 0 -29 -3 -43 -6 -17 -5 -22 -3 -15 4 16 17 75 25 75 10z m760 -105
c-13 -17 -19 -35 -16 -49 5 -20 2 -22 -44 -26 -55 -3 -55 -4 -39 41 8 21 17
31 32 31 12 1 33 7 47 15 38 22 44 18 20 -12z m-2972 -160 c12 -49 22 -97 22
-107 0 -10 7 -33 15 -50 l16 -33 117 1 117 1 0 -165 c0 -144 2 -169 18 -192
10 -15 16 -32 12 -38 -10 -16 -55 -12 -55 5 0 21 -61 19 -125 -3 l-50 -17 -1
170 c-1 99 -6 182 -12 200 l-12 30 5 -35 c2 -19 7 -89 11 -156 l7 -120 -27
-22 c-15 -11 -34 -18 -42 -15 -10 3 -12 0 -8 -10 3 -8 1 -18 -4 -21 -5 -3 -9
2 -8 12 1 12 -6 17 -24 17 -22 0 -26 6 -34 45 -4 25 -10 102 -13 171 -4 120
-3 127 16 132 11 3 23 17 27 33 6 22 2 31 -19 49 -26 20 -27 24 -27 128 l0
108 28 -15 c25 -13 31 -27 50 -103z m-1891 -10 c-3 -10 -5 -4 -5 12 0 17 2 24
5 18 2 -7 2 -21 0 -30z m4522 -115 c73 -22 64 -38 -21 -38 -91 0 -240 -18
-252 -30 -6 -6 -3 -24 9 -47 11 -21 21 -42 24 -47 4 -10 -112 -2 -142 9 -14 6
-17 20 -17 75 l0 69 53 10 c28 5 61 12 72 15 35 9 228 -3 274 -16z m-2675 -20
c7 -12 6 -21 -3 -32 -21 -25 -31 -19 -31 20 0 37 14 42 34 12z m33 -490 c-3
-7 -5 -2 -5 12 0 14 2 19 5 13 2 -7 2 -19 0 -25z m-77 13 c0 -17 -26 -28 -70
-28 l-45 -1 48 10 c26 6 47 14 47 19 0 5 5 9 10 9 6 0 10 -4 10 -9z m-90 -61
c0 -5 -4 -10 -10 -10 -5 0 -10 5 -10 10 0 6 5 10 10 10 6 0 10 -4 10 -10z m60
-7 c0 -15 2 -16 10 -3 15 23 12 2 -5 -29 -8 -16 -11 -32 -7 -36 4 -5 1 -5 -6
-1 -7 4 -9 12 -6 18 4 7 0 7 -13 0 -10 -6 -25 -7 -32 -2 -22 13 8 70 36 70 15
0 23 -6 23 -17z m-93 -25 c-3 -8 -6 -5 -6 6 -1 11 2 17 5 13 3 -3 4 -12 1 -19z
m43 -46 c3 -3 -3 -2 -12 1 -10 4 -18 2 -18 -3 0 -14 34 -12 48 2 9 9 12 8 12
-5 0 -13 -9 -17 -34 -17 -28 0 -34 4 -38 25 -5 22 -3 23 16 13 12 -6 23 -13
26 -16z m90 8 c0 -11 -4 -20 -9 -20 -5 0 -7 9 -4 20 3 11 7 20 9 20 2 0 4 -9
4 -20z m530 -31 c0 -12 7 -27 15 -33 12 -8 5 -10 -32 -8 -63 4 -147 -18 -151
-39 -4 -22 22 -31 53 -19 14 5 54 12 90 16 48 5 65 11 65 22 0 11 3 12 14 2 8
-6 12 -18 9 -25 -3 -9 7 -19 29 -28 l33 -14 -85 -12 c-47 -7 -99 -19 -117 -26
-31 -13 -32 -13 -30 13 2 23 -3 27 -41 33 -54 10 -67 18 -53 32 17 17 13 45
-6 56 -26 14 -13 21 69 36 113 20 138 19 138 -6z m-575 -8 c-3 -6 -11 -11 -17
-11 -6 0 -6 6 2 15 14 17 26 13 15 -4z m-9 -40 c-4 -6 -14 -7 -23 -4 -15 6
-14 7 3 13 22 9 29 6 20 -9z m758 -58 c8 -20 3 -16 -35 24 l-34 37 32 -25 c17
-13 34 -30 37 -36z m-634 -98 c10 -11 21 -33 24 -50 l8 -30 -30 28 -29 28 -16
-23 c-16 -23 -16 -23 -16 14 -1 20 4 49 10 65 10 27 11 27 21 8 6 -11 19 -29
28 -40z m-1500 35 c0 -5 -5 -10 -11 -10 -5 0 -7 5 -4 10 3 6 8 10 11 10 2 0 4
-4 4 -10z m1700 -25 c41 -9 38 -23 -7 -27 -32 -3 -38 -7 -45 -35 l-9 -33 -28
32 -29 33 36 31 c28 24 39 29 45 19 4 -7 21 -16 37 -20z m621 -62 c57 -40 89
-103 89 -170 0 -47 -1 -48 -31 -49 -20 -1 -61 -22 -120 -63 -50 -35 -105 -69
-124 -77 -48 -20 -213 -19 -242 1 -12 8 -28 12 -36 9 -20 -7 -90 30 -115 61
-11 14 -27 25 -35 25 -8 0 -33 20 -56 45 -33 35 -41 52 -41 82 l0 37 28 -26
c49 -46 116 -85 202 -118 47 -18 89 -37 95 -42 5 -4 24 -8 43 -8 32 0 34 2 29
28 -2 15 -14 53 -26 84 -24 66 -27 114 -7 121 7 3 35 -5 62 -17 126 -58 187
-66 241 -31 30 20 29 43 -2 85 -27 36 -34 77 -12 64 6 -4 33 -22 58 -41z m10
33 c-1 -4 11 -18 26 -32 l28 -26 -29 22 c-17 11 -31 28 -32 36 -1 9 0 14 3 11
2 -3 4 -8 4 -11z m-2426 -26 c3 -5 1 -10 -4 -10 -6 0 -11 5 -11 10 0 6 2 10 4
10 3 0 8 -4 11 -10z m2302 -406 c-3 -3 -12 -4 -19 -1 -8 3 -5 6 6 6 11 1 17
-2 13 -5z"/>
<path d="M2591 4454 c0 -11 3 -14 6 -6 3 7 2 16 -1 19 -3 4 -6 -2 -5 -13z"/>
<path d="M964 3780 c0 -52 1 -74 3 -47 2 26 2 68 0 95 -2 26 -3 4 -3 -48z"/>
<path d="M961 3654 c0 -11 3 -14 6 -6 3 7 2 16 -1 19 -3 4 -6 -2 -5 -13z"/>
<path d="M1603 3935 c0 -8 4 -12 9 -9 5 3 6 10 3 15 -9 13 -12 11 -12 -6z"/>
<path d="M1602 3705 c1 -138 3 -181 8 -140 11 83 10 296 0 320 -5 12 -8 -60
-8 -180z"/>
<path d="M1810 3429 c0 -5 11 -9 24 -9 49 0 76 -23 39 -33 -10 -3 2 -5 27 -5
37 0 40 1 20 8 -17 6 1 9 60 10 l85 3 -77 8 c-43 4 -100 12 -128 17 -28 5 -50
5 -50 1z"/>
<path d="M1010 3350 c0 -5 5 -10 10 -10 6 0 10 5 10 10 0 6 -4 10 -10 10 -5 0
-10 -4 -10 -10z"/>
<path d="M1638 3343 c23 -2 59 -2 80 0 20 2 1 4 -43 4 -44 0 -61 -2 -37 -4z"/>
<path d="M1338 3333 c7 -3 16 -2 19 1 4 3 -2 6 -13 5 -11 0 -14 -3 -6 -6z"/>
<path d="M1403 3333 c9 -2 23 -2 30 0 6 3 -1 5 -18 5 -16 0 -22 -2 -12 -5z"/>
<path d="M2016 3284 c-17 -12 -17 -14 -3 -20 9 -3 24 -4 34 -1 13 3 11 5 -7 7
-22 1 -23 2 -6 9 11 4 15 10 10 13 -5 4 -18 0 -28 -8z"/>
<path d="M2166 3292 c-3 -5 1 -9 9 -9 8 0 12 4 9 9 -3 4 -7 8 -9 8 -2 0 -6 -4
-9 -8z"/>
<path d="M2217 3268 c9 -18 20 -49 24 -68 6 -32 7 -32 8 -7 1 26 -33 107 -44
107 -3 0 2 -15 12 -32z"/>
<path d="M1615 3277 c-49 -4 -95 -8 -102 -9 -17 -2 -3 -28 16 -28 14 0 14 2 1
10 -13 8 -13 10 2 10 9 0 18 -4 20 -9 2 -5 23 -3 47 6 27 9 70 13 117 11 41
-2 74 0 74 3 0 12 -81 14 -175 6z"/>
<path d="M2128 3283 c7 -3 16 -2 19 1 4 3 -2 6 -13 5 -11 0 -14 -3 -6 -6z"/>
<path d="M1817 3274 c-14 -15 7 -24 51 -24 l47 1 -40 14 c-46 17 -49 17 -58 9z"/>
<path d="M2113 3253 c9 -2 25 -2 35 0 9 3 1 5 -18 5 -19 0 -27 -2 -17 -5z"/>
<path d="M1135 3218 c30 -35 37 -62 33 -114 -3 -36 -6 -40 -48 -54 -47 -17
-70 -45 -70 -91 0 -15 -7 -32 -15 -39 -15 -12 -23 -12 -195 6 -39 4 -42 3 -20
-7 39 -17 206 -24 224 -10 8 7 17 30 21 52 7 41 39 72 87 84 14 4 28 16 31 27
7 27 -2 86 -19 126 -8 18 -13 36 -10 40 2 4 -7 8 -20 8 l-24 2 25 -30z"/>
<path d="M742 3214 c-7 -8 -8 -14 -3 -14 10 0 25 19 20 25 -2 1 -10 -3 -17
-11z"/>
<path d="M2251 3149 c0 -9 5 -21 12 -26 19 -15 47 -23 47 -14 0 5 -11 12 -24
15 -14 3 -27 14 -29 24 -4 14 -5 14 -6 1z"/>
<path d="M556 2851 c-4 -5 3 -7 14 -4 23 6 26 13 6 13 -8 0 -17 -4 -20 -9z"/>
<path d="M664 2839 c15 -9 16 -13 5 -21 -11 -8 -11 -9 1 -5 8 2 20 -3 26 -11
9 -13 12 -13 17 2 4 11 -2 20 -23 31 -33 17 -55 20 -26 4z"/>
<path d="M702 2760 c0 -14 2 -19 5 -12 2 6 2 18 0 25 -3 6 -5 1 -5 -13z"/>
<path d="M702 2700 c0 -19 2 -27 5 -17 2 9 2 25 0 35 -3 9 -5 1 -5 -18z"/>
<path d="M638 2533 c0 -10 -1 -27 -2 -38 0 -11 -5 -23 -11 -27 -7 -5 -7 -8 0
-8 16 0 19 -178 4 -196 -7 -9 -8 -14 -1 -14 6 0 13 -10 15 -22 2 -13 5 55 6
150 0 94 -1 172 -4 172 -3 0 -6 -8 -7 -17z"/>
<path d="M560 1329 c0 -5 5 -7 10 -4 6 3 10 8 10 11 0 2 -4 4 -10 4 -5 0 -10
-5 -10 -11z"/>
<path d="M2348 1103 c7 -3 16 -2 19 1 4 3 -2 6 -13 5 -11 0 -14 -3 -6 -6z"/>
<path d="M2298 1093 c6 -2 18 -2 25 0 6 3 1 5 -13 5 -14 0 -19 -2 -12 -5z"/>
<path d="M591 1074 c0 -11 3 -14 6 -6 3 7 2 16 -1 19 -3 4 -6 -2 -5 -13z"/>
<path d="M2206 1040 c-20 -22 -36 -46 -36 -53 0 -6 6 -3 12 8 6 11 24 35 41
53 17 17 28 32 25 32 -3 0 -22 -18 -42 -40z"/>
<path d="M1038 933 c17 -2 47 -2 65 0 17 2 3 4 -33 4 -36 0 -50 -2 -32 -4z"/>
<path d="M1147 907 c-3 -8 -1 -20 5 -28 8 -11 9 -11 4 3 -6 19 8 33 24 23 8
-5 7 -11 -1 -21 -6 -8 -10 -17 -7 -19 10 -10 30 25 24 40 -7 19 -42 20 -49 2z"/>
<path d="M916 894 c-17 -12 -17 -14 -4 -14 9 0 20 5 23 11 11 17 2 18 -19 3z"/>
<path d="M5110 2529 c0 -5 5 -7 10 -4 6 3 10 8 10 11 0 2 -4 4 -10 4 -5 0 -10
-5 -10 -11z"/>
<path d="M5050 2400 c0 -5 5 -10 11 -10 5 0 7 5 4 10 -3 6 -8 10 -11 10 -2 0
-4 -4 -4 -10z"/>
<path d="M2375 940 c-3 -5 2 -10 12 -11 13 -1 11 -3 -7 -9 l-25 -8 28 -1 c29
-1 30 0 21 23 -7 18 -20 21 -29 6z"/>
<path d="M2630 8236 c0 -2 8 -10 18 -17 15 -13 16 -12 3 4 -13 16 -21 21 -21
13z"/>
<path d="M2380 8226 c0 -2 8 -10 18 -17 15 -13 16 -12 3 4 -13 16 -21 21 -21
13z"/>
<path d="M2626 8207 c3 -10 9 -15 12 -12 3 3 0 11 -7 18 -10 9 -11 8 -5 -6z"/>
<path d="M2672 8180 c7 -10 14 -18 15 -16 6 6 -9 36 -18 36 -5 0 -4 -9 3 -20z"/>
<path d="M2410 8186 c0 -2 8 -10 18 -17 15 -13 16 -12 3 4 -13 16 -21 21 -21
13z"/>
<path d="M2642 8138 c-1 -25 -5 -55 -8 -65 -5 -17 -5 -17 6 0 6 9 9 39 7 65
l-3 47 -2 -47z"/>
<path d="M2531 8093 c0 -23 -5 -53 -11 -68 -6 -16 -6 -24 0 -20 13 8 23 65 17
101 -3 23 -4 20 -6 -13z"/>
<path d="M2452 8100 c0 -14 2 -19 5 -12 2 6 2 18 0 25 -3 6 -5 1 -5 -13z"/>
<path d="M2764 8058 l-19 -21 28 18 c28 18 33 25 19 25 -5 0 -17 -10 -28 -22z"/>
<path d="M2462 8035 c0 -16 2 -22 5 -12 2 9 2 23 0 30 -3 6 -5 -1 -5 -18z"/>
<path d="M2687 7985 c-46 -52 -80 -62 -133 -40 -25 10 -34 11 -26 4 17 -18 15
-34 -3 -19 -20 17 -19 12 9 -47 30 -61 96 -120 153 -136 36 -9 43 -15 46 -41
l4 -31 1 32 c2 30 5 32 57 44 30 7 61 19 68 27 10 13 9 14 -9 4 -46 -24 -117
-34 -162 -21 -39 11 -132 80 -132 99 0 5 20 -3 46 -17 25 -14 48 -23 51 -19 4
3 2 6 -4 6 -6 0 -27 14 -48 30 -37 30 -38 43 -1 15 11 -8 23 -15 27 -15 12 0
97 89 91 95 -3 2 -10 -3 -17 -12 -9 -13 -14 -13 -20 -3 -6 9 -4 11 5 5 10 -6
12 -4 7 8 -3 9 -3 16 1 16 17 -3 32 2 31 9 -1 4 0 9 1 12 6 17 7 40 2 39 -4 0
-24 -20 -45 -44z"/>
<path d="M2800 7941 c43 -27 124 -108 132 -133 8 -23 28 3 22 28 -4 14 -1 32
7 42 13 16 12 16 -7 0 -27 -24 -28 -24 -70 17 -34 33 -102 75 -121 75 -4 0 12
-13 37 -29z"/>
<path d="M2720 7894 c0 -21 4 -45 9 -53 5 -8 7 5 4 35 -7 61 -13 70 -13 18z"/>
<path d="M2515 7860 c7 -50 -14 -126 -48 -174 -11 -15 -40 -41 -65 -57 -25
-16 -40 -29 -32 -29 7 0 28 11 47 26 46 35 43 12 -7 -63 l-40 -60 -82 1 c-98
2 -134 -7 -134 -34 0 -10 4 -18 7 -17 4 1 15 -7 24 -18 16 -20 16 -20 10 3 -7
23 1 26 60 25 48 -1 49 -2 24 -30 l-24 -27 38 22 c39 23 62 27 70 15 3 -5 -6
-9 -20 -10 -33 -1 -61 -30 -69 -70 -6 -28 -3 -34 27 -52 18 -11 35 -18 38 -15
3 3 -2 10 -12 15 -9 6 -17 16 -17 23 0 20 30 28 37 10 3 -8 12 -13 19 -10 9 3
14 -2 14 -14 0 -10 -8 -21 -17 -23 -17 -4 -17 -5 0 -6 9 0 26 8 38 20 17 17
20 29 15 60 -7 46 -2 49 18 12 12 -23 16 -25 21 -11 4 9 1 27 -6 40 -7 13 -12
26 -11 30 1 4 -12 15 -28 23 -17 9 -30 21 -30 27 0 10 44 75 60 88 3 3 15 27
27 53 26 62 34 46 39 -77 3 -50 7 -92 9 -95 11 -10 4 138 -8 186 -12 45 -12
56 4 94 20 49 24 126 8 149 -7 11 -8 2 -4 -30z"/>
<path d="M2431 7864 c0 -11 3 -14 6 -6 3 7 2 16 -1 19 -3 4 -6 -2 -5 -13z"/>
<path d="M2416 7815 c-9 -26 -7 -32 5 -12 6 10 9 21 6 23 -2 3 -7 -2 -11 -11z"/>
<path d="M2678 7813 c7 -3 16 -2 19 1 4 3 -2 6 -13 5 -11 0 -14 -3 -6 -6z"/>
<path d="M2765 7810 l-60 -7 68 -1 c43 -1 66 2 62 8 -3 6 -7 9 -8 8 -1 -1 -29
-4 -62 -8z"/>
<path d="M1914 7608 l-19 -23 23 19 c21 18 27 26 19 26 -2 0 -12 -10 -23 -22z"/>
<path d="M2105 7610 c3 -5 11 -10 16 -10 6 0 7 5 4 10 -3 6 -11 10 -16 10 -6
0 -7 -4 -4 -10z"/>
<path d="M2275 7554 c-43 -38 -22 -32 34 10 19 14 28 26 20 26 -8 -1 -32 -17
-54 -36z"/>
<path d="M2198 7573 c6 -2 18 -2 25 0 6 3 1 5 -13 5 -14 0 -19 -2 -12 -5z"/>
<path d="M2332 7550 c0 -14 2 -19 5 -12 2 6 2 18 0 25 -3 6 -5 1 -5 -13z"/>
<path d="M2811 7524 c0 -11 3 -14 6 -6 3 7 2 16 -1 19 -3 4 -6 -2 -5 -13z"/>
<path d="M2037 7475 c-4 -8 -2 -17 3 -20 6 -4 10 3 10 14 0 25 -6 27 -13 6z"/>
<path d="M1883 7373 l-31 -34 49 2 c27 2 49 5 49 8 0 3 -8 18 -18 32 l-17 26
-32 -34z m37 -13 c-24 -15 -31 -11 -18 10 9 13 16 16 23 9 7 -7 5 -13 -5 -19z"/>
<path d="M2064 7354 c3 -9 6 -20 6 -25 0 -5 4 -9 9 -9 4 0 6 11 3 25 -2 14 -9
25 -14 25 -6 0 -7 -7 -4 -16z"/>
<path d="M2117 7269 c4 -13 8 -18 11 -10 2 7 -1 18 -6 23 -8 8 -9 4 -5 -13z"/>
<path d="M3230 6106 c0 -2 8 -10 18 -17 15 -13 16 -12 3 4 -13 16 -21 21 -21
13z"/>
<path d="M3270 6063 c0 -6 8 -17 18 -24 16 -13 16 -13 2 6 -8 11 -16 22 -17
24 -2 2 -3 0 -3 -6z"/>
<path d="M3330 5983 c0 -6 8 -17 18 -24 16 -13 16 -13 2 6 -8 11 -16 22 -17
24 -2 2 -3 0 -3 -6z"/>
<path d="M3370 5920 c6 -11 13 -20 16 -20 2 0 0 9 -6 20 -6 11 -13 20 -16 20
-2 0 0 -9 6 -20z"/>
<path d="M3396 5877 c3 -10 9 -15 12 -12 3 3 0 11 -7 18 -10 9 -11 8 -5 -6z"/>
<path d="M3431 5795 c1 -19 18 -51 18 -35 0 8 -4 22 -9 30 -5 8 -9 11 -9 5z"/>
<path d="M3461 5694 c0 -11 3 -14 6 -6 3 7 2 16 -1 19 -3 4 -6 -2 -5 -13z"/>
<path d="M3471 5654 c0 -11 3 -14 6 -6 3 7 2 16 -1 19 -3 4 -6 -2 -5 -13z"/>
<path d="M3180 5620 c0 -5 7 -7 15 -4 8 4 15 8 15 10 0 2 -7 4 -15 4 -8 0 -15
-4 -15 -10z"/>
<path d="M3482 5610 c0 -14 2 -19 5 -12 2 6 2 18 0 25 -3 6 -5 1 -5 -13z"/>
<path d="M3492 5555 c0 -16 2 -22 5 -12 2 9 2 23 0 30 -3 6 -5 -1 -5 -18z"/>
<path d="M1011 5544 c0 -11 3 -14 6 -6 3 7 2 16 -1 19 -3 4 -6 -2 -5 -13z"/>
<path d="M3501 5464 c0 -11 3 -14 6 -6 3 7 2 16 -1 19 -3 4 -6 -2 -5 -13z"/>
<path d="M3491 5404 c0 -11 3 -14 6 -6 3 7 2 16 -1 19 -3 4 -6 -2 -5 -13z"/>
<path d="M3531 5174 c0 -11 3 -14 6 -6 3 7 2 16 -1 19 -3 4 -6 -2 -5 -13z"/>
<path d="M3552 5100 c0 -14 2 -19 5 -12 2 6 2 18 0 25 -3 6 -5 1 -5 -13z"/>
<path d="M3561 5046 c0 -15 6 -56 15 -89 9 -34 13 -80 11 -102 l-5 -40 10 33
c9 25 7 50 -5 110 -9 42 -19 86 -21 97 -2 13 -4 10 -5 -9z"/>
<path d="M4936 2153 c-6 -14 -5 -15 5 -6 7 7 10 15 7 18 -3 3 -9 -2 -12 -12z"/>
<path d="M4980 2163 c8 -3 22 -11 30 -17 13 -10 13 -9 1 7 -7 9 -21 17 -30 16
-13 0 -14 -1 -1 -6z"/>
<path d="M4722 1805 c0 -16 2 -22 5 -12 2 9 2 23 0 30 -3 6 -5 -1 -5 -18z"/>
<path d="M6117 903 c-4 -3 -39 -5 -79 -4 -48 1 -83 -4 -102 -14 -19 -10 -91
-20 -204 -30 -96 -7 -179 -18 -185 -24 -6 -6 -17 -11 -25 -11 -13 0 -37 -9
-122 -47 -19 -9 -51 -18 -70 -20 -19 -2 -39 -8 -45 -14 -5 -5 -17 -9 -27 -9
-10 0 -18 -3 -19 -7 -10 -77 -10 -78 37 -92 24 -7 62 -26 84 -42 22 -16 46
-29 53 -29 7 0 21 -6 32 -13 11 -8 37 -15 58 -15 20 -1 45 -6 55 -11 9 -5 44
-12 77 -15 33 -3 103 -12 155 -20 52 -8 151 -17 220 -20 182 -8 320 -16 358
-21 l32 -4 0 234 0 235 -139 -1 c-76 0 -141 -3 -144 -6z"/>
</g>
</svg>
