<?xml version="1.0" standalone="no"?>
<!DOCTYPE svg PUBLIC "-//W3C//DTD SVG 20010904//EN"
 "http://www.w3.org/TR/2001/REC-SVG-20010904/DTD/svg10.dtd">
<svg version="1.0" xmlns="http://www.w3.org/2000/svg"
 width="601.000000pt" height="678.000000pt" viewBox="0 0 601.000000 678.000000"
 preserveAspectRatio="xMidYMid meet">

<g transform="translate(0.000000,678.000000) scale(0.100000,-0.100000)"
fill="#000000" stroke="none">
<path d="M0 3390 l0 -3390 3005 0 3005 0 0 3390 0 3390 -3005 0 -3005 0 0
-3390z m3438 1211 c78 -40 122 -122 130 -238 5 -80 -23 -197 -55 -225 -31 -28
-121 -58 -173 -58 -43 0 -55 -5 -89 -35 -37 -34 -59 -45 -46 -25 4 6 -6 10
-22 10 l-28 0 33 26 c29 23 32 30 32 81 0 51 -3 59 -39 98 -48 52 -65 107 -52
164 7 33 6 41 -5 41 -8 0 -14 4 -14 8 0 16 138 142 172 157 46 20 112 18 156
-4z m20 -733 c59 -155 63 -241 15 -298 -34 -41 -74 -49 -268 -56 -93 -2 -209
-12 -258 -21 -100 -19 -111 -15 -122 48 -6 30 -3 40 16 58 19 17 36 21 93 21
106 1 266 18 309 33 59 21 62 27 49 104 -14 83 -18 160 -9 169 9 9 67 22 108
23 l36 1 31 -82z m-576 -190 c-7 -7 -12 -8 -12 -2 0 6 3 14 7 17 3 4 9 5 12 2
2 -3 -1 -11 -7 -17z m-523 -434 c16 -27 26 -34 41 -29 19 6 20 2 20 -142 0
-150 -21 -368 -41 -420 -5 -15 -24 -42 -41 -60 l-31 -32 -5 -178 c-2 -98 -5
-198 -5 -222 -1 -37 3 -47 28 -67 40 -32 29 -48 -71 -101 -64 -35 -89 -43
-132 -43 -76 0 -92 11 -92 65 0 41 -2 45 -25 45 -36 0 -40 21 -22 103 12 55
13 84 6 122 -7 34 -7 73 0 120 22 143 35 282 36 365 1 47 6 95 13 106 7 13 9
42 6 70 l-5 49 85 89 c58 59 90 86 101 82 10 -3 28 11 55 45 22 28 40 55 40
60 0 20 19 7 39 -27z m1326 -481 c1 -54 3 -145 5 -203 3 -103 2 -108 -45 -250
-42 -126 -48 -158 -51 -244 -2 -55 -8 -104 -14 -110 -21 -21 -281 -33 -355
-17 -26 6 -30 11 -29 38 2 27 -2 32 -27 37 -20 4 -29 12 -29 25 0 17 43 43
136 83 11 5 41 27 67 49 40 35 49 50 71 122 27 92 39 152 57 280 11 83 10 91
-8 115 -11 15 -23 47 -26 72 -4 25 -9 55 -13 67 -7 26 7 29 156 32 l105 1 0
-97z"/>
</g>
</svg>
